<?xml version="1.0" encoding="UTF-8"?>
<svg xmlns="http://www.w3.org/2000/svg" viewBox="0 0 542.46 318.17">
  <defs>
    <style>
      .cls-1, .cls-2 {
        stroke-width: 3px;
      }

      .cls-1, .cls-2, .cls-3, .cls-4 {
        fill: none;
        stroke-miterlimit: 10;
      }

      .cls-1, .cls-4 {
        stroke: #454546;
      }

      .cls-2, .cls-3 {
        stroke: #444545;
      }

      .cls-5 {
        fill: #444545;
      }

      .cls-6 {
        fill: #454546;
      }

      .cls-7, .cls-8 {
        opacity: .42;
      }

      .cls-8 {
        fill: #f4f4f5;
      }
    </style>
  </defs>
  <g id="Layer_2" data-name="Layer 2">
    <rect class="cls-8" width="542.46" height="318.17"/>
  </g>
  <g id="Layer_1" data-name="Layer 1">
    <g class="cls-7">
      <path class="cls-4" d="m419.93,119.18c-.16,1.25-.44,2.45-.81,3.61.15-1.25.42-2.45.81-3.61Z"/>
      <path class="cls-4" d="m381.06,124.78c-.14-.31-.27-.62-.39-.94.21.25.42.52.61.78"/>
      <path class="cls-4" d="m381.06,124.78c-.14-.31-.27-.62-.39-.94.21.25.42.52.61.78"/>
      <path class="cls-4" d="m419.93,119.18c-.16,1.25-.44,2.45-.81,3.61.15-1.25.42-2.45.81-3.61Z"/>
      <path class="cls-4" d="m419.93,119.18c-.16,1.25-.44,2.45-.81,3.61.15-1.25.42-2.45.81-3.61Z"/>
      <path class="cls-4" d="m419.95,119.12s-.02.04-.02.06c0-.02.01-.05,0-.07t.02.01Z"/>
      <path class="cls-1" d="m381.06,124.78c-.14-.31-.27-.62-.39-.94"/>
      <path class="cls-1" d="m445.33,165.28c.55-2.66.84-5.4.84-8.23,0-4.11-.61-8.08-1.75-11.81,8.81-2.25,15.32-10.23,15.32-19.75,0-5.5-2.17-10.47-5.7-14.13-3.63-3.79-8.7-6.17-14.33-6.26-.12-.01-.25-.01-.38-.01-9.04,0-16.71,5.89-19.37,14.04-.02.02-.02.04-.02.06-.16,1.25-.44,2.45-.81,3.61.15-1.25.42-2.45.81-3.61,0-.02.01-.05,0-.07.12-.85.18-1.72.18-2.6,0-9.75-6.85-17.91-16-19.92-1.41-.32-2.9-.48-4.4-.48-4.12,0-7.97,1.22-11.17,3.33h0c-5.56,3.65-9.22,9.94-9.22,17.07,0,2.59.48,5.06,1.37,7.34-3.74-4.49-9.37-7.34-15.67-7.34-3.52,0-6.84.89-9.73,2.46-4.75,2.58-8.35,6.99-9.87,12.28-.52,1.79-.8,3.7-.8,5.65,0,10.42,7.82,19.02,17.9,20.24-6.78,1.22-12.4,5.83-15.06,12-1.07,2.47-1.66,5.2-1.66,8.07s.54,5.36,1.52,7.74c3.05,7.43,10.35,12.66,18.87,12.66,6.41,0,12.12-2.94,15.85-7.56.98.71,3.92,2.19,6.83,3.63.02.01.04.02.06.02,2.72,1.34,5.43,2.63,6.52,3.14,0,0,0,.01.01.01.02,0,.04.01.06.02l15.42,30.57,25.27,50.11,46.16,91.5,63.94-36.9-100.97-166.87Zm-89.02-29.02c0-4.36,3.53-7.89,7.89-7.89s7.89,3.53,7.89,7.89-3.53,7.9-7.89,7.9-7.89-3.53-7.89-7.9Zm10.6,47.85c-4.37,0-7.9-3.53-7.9-7.89s3.53-7.89,7.9-7.89,7.89,3.53,7.89,7.89-3.53,7.89-7.89,7.89Zm73.66-68.15c4.36,0,7.89,3.53,7.89,7.89s-3.53,7.89-7.89,7.89-7.9-3.53-7.9-7.89,3.53-7.89,7.9-7.89Zm-40.49-8.95c4.36,0,7.89,3.54,7.89,7.9s-3.53,7.89-7.89,7.89-7.9-3.53-7.9-7.89,3.53-7.9,7.9-7.9Zm9.99,67.54c-7.51,4.78-17.57.74-19.56-7.95-2.67-11.59-2.78-24.64,3.87-28.87,6.65-4.24,18.44,1.37,27.81,8.68,7.03,5.48,6.45,16.3-1.06,21.08l-11.07,7.06Z"/>
      <path class="cls-6" d="m374.8,176.22c0,4.36-3.53,7.89-7.89,7.89s-7.9-3.53-7.9-7.89,3.53-7.89,7.9-7.89,7.89,3.53,7.89,7.89Z"/>
      <path class="cls-6" d="m372.09,136.25c0,4.37-3.53,7.9-7.89,7.9s-7.89-3.53-7.89-7.9,3.53-7.89,7.89-7.89,7.89,3.53,7.89,7.89Z"/>
      <path class="cls-6" d="m407.97,114.91c0,4.36-3.53,7.89-7.89,7.89s-7.9-3.53-7.9-7.89,3.53-7.9,7.9-7.9,7.89,3.54,7.89,7.9Z"/>
      <path class="cls-6" d="m448.46,123.84c0,4.36-3.53,7.89-7.89,7.89s-7.9-3.53-7.9-7.89,3.53-7.89,7.9-7.89,7.89,3.53,7.89,7.89Z"/>
      <path class="cls-5" d="m421.13,167.48l-11.07,7.06c-7.51,4.78-17.57.74-19.56-7.95-2.67-11.59-2.78-24.64,3.87-28.87,6.65-4.24,18.44,1.37,27.81,8.68,7.03,5.48,6.45,16.3-1.06,21.08Z"/>
      <path class="cls-2" d="m345.78,177.21c0,2.74.54,5.36,1.52,7.74-.59.04-1.21-.04-1.84-.22-4.62-1.41-9.22-4.03-9.36-7.22-.14-3.2,4.22-6.21,8.69-8.02.88-.37,1.79-.46,2.65-.34-1.07,2.47-1.66,5.2-1.66,8.07Z"/>
      <path class="cls-2" d="m355.27,118.97c-4.75,2.58-8.35,6.99-9.87,12.28-.87-.53-1.6-1.32-2.06-2.34-1.95-4.42-3-9.61-.67-11.81,2.32-2.2,7.45-.87,11.75,1.32.31.15.59.34.85.55Z"/>
      <path class="cls-2" d="m404.11,96.58c-1.41-.32-2.9-.48-4.4-.48-4.12,0-7.97,1.22-11.17,3.33-.11-.52-.13-1.07-.07-1.64.52-4.8,2.21-9.82,5.32-10.56s6.89,2.98,9.51,7.03c.48.73.74,1.52.81,2.32Z"/>
      <path class="cls-2" d="m454.07,111.16c-.01.07-.02.13-.04.2-3.63-3.79-8.7-6.17-14.33-6.26.24-.39.53-.77.89-1.1,3.57-3.26,8.16-5.9,10.99-4.4,2.83,1.51,3.2,6.78,2.48,11.56Z"/>
      <path class="cls-6" d="m423.18,196.09c-8.96,4.74-19.93,5.32-29.3,1.5-2.12-.93-4.28-1.85-6.1-3.3,0,0,1.19-1.84,1.19-1.84.49.05,1.43.77,1.92,1.01,9.43,5.22,21.47,5.22,30.88,0,0,0,1.41,2.65,1.41,2.65h0Z"/>
      <path class="cls-6" d="m413.86,230.4c3.9-1.47,8.07-2.25,12.4-2.25,21.42,0,38.78,19.07,38.78,42.6,0,14.47-6.57,27.26-16.62,34.94l-34.56-75.3Z"/>
      <path class="cls-6" d="m525.41,296.43c-2.53,1.08-5.27,1.75-8.15,1.96-14.25,1.03-26.64-9.72-27.68-24.02-.64-8.79,3.17-16.88,9.52-22.03l26.3,44.08Z"/>
      <path class="cls-6" d="m469.09,203.58c-1.55.66-3.24,1.07-5.01,1.2-8.76.63-16.37-5.95-17-14.71-.39-5.39,1.95-10.34,5.85-13.5l16.16,27Z"/>
      <path class="cls-4" d="m378.92,232.74c-.61.79-1.28,1.5-2.01,2.14.61-.79,1.27-1.5,2.01-2.14Z"/>
      <path class="cls-4" d="m350.14,220.95c.03-.27.07-.53.11-.8.05.25.08.52.11.78"/>
      <path class="cls-4" d="m350.14,220.95c.03-.27.07-.53.11-.8.05.25.08.52.11.78"/>
      <path class="cls-4" d="m378.92,232.74c-.61.79-1.28,1.5-2.01,2.14.61-.79,1.27-1.5,2.01-2.14Z"/>
      <path class="cls-4" d="m378.92,232.74c-.61.79-1.28,1.5-2.01,2.14.61-.79,1.27-1.5,2.01-2.14Z"/>
      <path class="cls-4" d="m378.96,232.71s-.03.01-.04.03c0-.02.03-.03.03-.05t.01.02Z"/>
      <path class="cls-1" d="m350.14,220.95c.03-.27.07-.53.11-.8"/>
      <path class="cls-6" d="m377.74,274.4c1.45-1.59,2.74-3.35,3.88-5.28,1.65-2.8,2.83-5.76,3.55-8.76,6.91,2,14.56-.83,18.38-7.32,2.21-3.75,2.72-8.01,1.78-11.93-.95-4.04-3.46-7.7-7.26-10.03-.08-.06-.16-.11-.25-.16-6.17-3.63-13.77-2.69-18.85,1.8-.03,0-.03.01-.04.03-.61.79-1.28,1.5-2.01,2.14.61-.79,1.27-1.5,2.01-2.14,0-.02.03-.03.03-.05.42-.53.81-1.1,1.17-1.7,3.92-6.65,2.52-14.97-2.92-20.02-.84-.78-1.78-1.49-2.81-2.1-2.81-1.65-5.93-2.37-8.96-2.21h0c-5.25.26-10.28,3.08-13.14,7.95-1.04,1.77-1.7,3.65-2.01,5.55-.75-4.57-3.45-8.77-7.75-11.3-2.4-1.41-5.03-2.14-7.63-2.23-4.27-.15-8.51,1.42-11.67,4.42-1.07,1.01-2.03,2.2-2.82,3.54-4.18,7.11-2.3,16.12,4.09,21-5.12-1.89-10.8-1-15.1,2.14-1.72,1.26-3.22,2.89-4.37,4.84s-1.78,3.87-2.07,5.89c-.9,6.3,1.98,12.79,7.8,16.22,4.37,2.57,9.45,2.86,13.85,1.21.38.87,1.8,3.07,3.2,5.22.01.02.01.03.03.04,1.32,2.01,2.65,3.97,3.19,4.77,0,0,0,0,0,.01.02,0,.02.02.03.04l-1.75,27.05-2.88,44.35-5.24,80.98,58.45.49-1.89-154.43Zm-49.09-55.55c1.75-2.97,5.58-3.97,8.55-2.22s3.97,5.58,2.22,8.55c-1.75,2.98-5.58,3.97-8.56,2.22s-3.97-5.58-2.21-8.56Zm-11.98,36.91c-2.98-1.75-3.97-5.58-2.22-8.56,1.75-2.97,5.58-3.97,8.56-2.21s3.97,5.58,2.22,8.55c-1.75,2.97-5.58,3.97-8.55,2.22Zm77.64-16.93c2.97,1.75,3.97,5.58,2.22,8.55s-5.58,3.97-8.55,2.22c-2.98-1.75-3.97-5.58-2.22-8.56s5.58-3.97,8.56-2.21Zm-24.04-22.37c2.97,1.75,3.96,5.59,2.21,8.56-1.75,2.97-5.58,3.97-8.55,2.22-2.98-1.75-3.97-5.58-2.22-8.56s5.58-3.97,8.56-2.22Zm-20.31,50.1c-7.05.25-12.29-6.55-10.16-13.28,2.83-8.98,8-17.93,14.24-18.15,6.24-.22,12.04,8.34,15.5,17.09,2.6,6.56-2.14,13.71-9.19,13.96l-10.39.38Z"/>
      <path class="cls-4" d="m325.21,253.54c-1.75,2.97-5.58,3.97-8.55,2.22-2.98-1.75-3.97-5.58-2.22-8.56,1.75-2.97,5.58-3.97,8.56-2.21s3.97,5.58,2.22,8.55Z"/>
      <path class="cls-4" d="m339.41,225.18c-1.75,2.98-5.58,3.97-8.56,2.22s-3.97-5.58-2.21-8.56,5.58-3.97,8.55-2.22,3.97,5.58,2.22,8.55Z"/>
      <path class="cls-4" d="m372.47,225.02c-1.75,2.97-5.58,3.97-8.55,2.22-2.98-1.75-3.97-5.58-2.22-8.56s5.58-3.97,8.56-2.22,3.96,5.59,2.21,8.56Z"/>
      <path class="cls-4" d="m396.51,247.38c-1.75,2.97-5.58,3.97-8.55,2.22-2.98-1.75-3.97-5.58-2.22-8.56s5.58-3.97,8.56-2.21,3.97,5.58,2.22,8.55Z"/>
      <path class="cls-3" d="m360.34,266.18l-10.39.38c-7.05.25-12.29-6.55-10.16-13.28,2.83-8.98,8-17.93,14.24-18.15,6.24-.22,12.04,8.34,15.5,17.09,2.6,6.56-2.14,13.71-9.19,13.96Z"/>
      <path class="cls-5" d="m305.01,242.56c-1.1,1.87-1.78,3.87-2.07,5.89-.42-.21-.81-.51-1.16-.89-2.58-2.82-4.67-6.45-3.49-8.68,1.19-2.24,5.37-2.54,9.15-1.98.75.11,1.41.41,1.95.83-1.72,1.26-3.22,2.89-4.37,4.84Z"/>
      <path class="cls-5" d="m334.88,206.63c-4.27-.15-8.51,1.42-11.67,4.42-.38-.71-.56-1.54-.47-2.43.44-3.8,1.81-7.76,4.28-8.33,2.47-.57,5.44,2.4,7.49,5.62.15.23.26.47.36.72Z"/>
      <path class="cls-5" d="m377.19,210.96c-.84-.78-1.78-1.49-2.81-2.1-2.81-1.65-5.93-2.37-8.96-2.21.14-.4.34-.78.61-1.15,2.28-3.07,5.45-5.81,7.87-5.07s3.5,4.8,3.67,8.62c.04.69-.1,1.33-.38,1.91Z"/>
      <path class="cls-5" d="m405.43,240.97s-.07.08-.1.12c-.95-4.04-3.46-7.7-7.26-10.03.32-.17.67-.31,1.05-.39,3.74-.79,7.94-.75,9.27,1.41,1.32,2.16-.54,5.91-2.95,8.89Z"/>
    </g>
  </g>
</svg>