<?xml version="1.0" encoding="utf-8"?>
<!-- Generator: Adobe Illustrator 27.5.0, SVG Export Plug-In . SVG Version: 6.00 Build 0)  -->
<svg version="1.1" id="Layer_1" xmlns="http://www.w3.org/2000/svg" xmlns:xlink="http://www.w3.org/1999/xlink" x="0px" y="0px"
	 viewBox="0 0 48 48" style="enable-background:new 0 0 48 48;" xml:space="preserve">
<style type="text/css">
	.st0{fill:#454546;}
</style>
<path class="st0" d="M8.5,23.8c-1.3,0-2.3-0.4-3.2-1.3C4.4,21.6,4,20.5,4,19.2s0.4-2.3,1.3-3.2c0.9-0.9,1.9-1.3,3.2-1.3
	s2.3,0.4,3.2,1.3c0.9,0.9,1.3,1.9,1.3,3.2s-0.4,2.3-1.3,3.2C10.8,23.3,9.8,23.8,8.5,23.8z M17.7,15.2c-1.3,0-2.3-0.4-3.2-1.3
	c-0.9-0.9-1.3-1.9-1.3-3.2s0.4-2.3,1.3-3.2s1.9-1.3,3.2-1.3c1.3,0,2.3,0.4,3.2,1.3c0.9,0.9,1.3,1.9,1.3,3.2c0,1.3-0.4,2.3-1.3,3.2
	C20.1,14.8,19,15.2,17.7,15.2z M30.2,15.2c-1.3,0-2.3-0.4-3.2-1.3c-0.9-0.9-1.3-1.9-1.3-3.2s0.4-2.3,1.3-3.2
	c0.9-0.9,1.9-1.3,3.2-1.3c1.3,0,2.3,0.4,3.2,1.3c0.9,0.9,1.3,1.9,1.3,3.2c0,1.3-0.4,2.3-1.3,3.2C32.6,14.8,31.5,15.2,30.2,15.2z
	 M39.5,23.8c-1.3,0-2.3-0.4-3.2-1.3c-0.9-0.9-1.3-1.9-1.3-3.2s0.4-2.3,1.3-3.2c0.9-0.9,1.9-1.3,3.2-1.3c1.3,0,2.3,0.4,3.2,1.3
	c0.9,0.9,1.3,1.9,1.3,3.2s-0.4,2.3-1.3,3.2C41.8,23.3,40.8,23.8,39.5,23.8z M13.3,44.2c-1.4,0-2.6-0.5-3.4-1.6
	c-0.9-1.1-1.4-2.3-1.4-3.7c0-1.4,0.4-2.6,1.3-3.7c0.8-1.1,1.8-2.1,2.7-3.1c0.7-0.7,1.4-1.5,2.1-2.3s1.2-1.7,1.8-2.5
	c1-1.5,2-2.8,3.2-4.1c1.2-1.3,2.7-1.9,4.4-1.9c1.7,0,3.2,0.6,4.4,1.9c1.2,1.3,2.3,2.7,3.3,4.2c0.6,0.9,1.2,1.7,1.8,2.5
	c0.6,0.8,1.3,1.6,2,2.3c1,1,1.9,2,2.7,3.1c0.8,1.1,1.3,2.3,1.3,3.7c0,1.4-0.5,2.7-1.3,3.7c-0.9,1.1-2,1.6-3.5,1.6
	c-1.8,0-3.6-0.1-5.4-0.5c-1.8-0.3-3.5-0.4-5.4-0.4c-1.8,0-3.6,0.1-5.4,0.4C16.9,44.1,15.1,44.2,13.3,44.2z"/>
</svg>
