<?xml version="1.0" encoding="utf-8"?>
<!-- Generator: Adobe Illustrator 27.5.0, SVG Export Plug-In . SVG Version: 6.00 Build 0)  -->
<svg version="1.1" id="Layer_1" xmlns="http://www.w3.org/2000/svg" xmlns:xlink="http://www.w3.org/1999/xlink" x="0px" y="0px"
	 viewBox="0 0 48 48" style="enable-background:new 0 0 48 48;" xml:space="preserve">
<style type="text/css">
	.st0{fill:#454546;}
</style>
<path class="st0" d="M9.4,20.5l5.3,2.2c0.6-1.2,1.2-2.4,1.9-3.6c0.7-1.2,1.4-2.3,2.2-3.3L14.8,15L9.4,20.5z M17.1,24.5l6.6,6.6
	c1.9-0.9,3.7-1.8,5.4-2.9c1.7-1.1,3-2.2,4.1-3.2c2.7-2.7,4.7-5.5,5.9-8.3c1.3-2.8,2-6,2.1-9.6c-3.6,0.1-6.8,0.8-9.6,2
	c-2.8,1.3-5.6,3.2-8.3,6c-1,1-2.1,2.4-3.2,4S17.9,22.6,17.1,24.5z M28.5,19.7c-0.7-0.7-1-1.5-1-2.5c0-1,0.3-1.8,1-2.5s1.5-1,2.5-1
	s1.8,0.3,2.5,1s1,1.5,1,2.5c0,1-0.3,1.8-1,2.5c-0.7,0.7-1.5,1-2.5,1S29.2,20.4,28.5,19.7z M27.8,38.9l5.5-5.5l-0.8-4
	c-1.1,0.8-2.2,1.5-3.4,2.2c-1.2,0.7-2.4,1.3-3.6,1.9L27.8,38.9z M44,4.2c0.3,4.5-0.3,8.7-1.7,12.4s-3.8,7.3-7.1,10.6l-0.1,0.1
	L35,27.3l1.1,5.5c0.1,0.5,0.1,1-0.1,1.5c-0.2,0.5-0.4,0.9-0.8,1.2l-8.5,8.6l-4.2-9.9L14,25.7l-9.9-4.2l8.6-8.6
	c0.4-0.4,0.8-0.6,1.2-0.8s1-0.2,1.5-0.1l5.5,1.1c0,0,0.1-0.1,0.1-0.1s0.1,0,0.1-0.1c3.3-3.3,6.8-5.7,10.5-7.1S39.5,3.8,44,4.2z
	 M7.5,31.8C8.6,30.6,10,30,11.7,30s3.1,0.6,4.3,1.7c1.2,1.2,1.7,2.6,1.7,4.3s-0.6,3.1-1.8,4.3c-0.9,0.9-2.2,1.6-4,2.2
	S7.4,43.5,3.8,44c0.5-3.6,1-6.4,1.6-8.2C5.9,34,6.6,32.6,7.5,31.8z M9.6,33.9c-0.5,0.5-0.9,1.3-1.2,2.3c-0.4,1.1-0.7,2.4-1,4.1
	c1.7-0.3,3-0.6,4.1-1s1.9-0.8,2.4-1.2c0.6-0.6,1-1.3,1-2.1c0-0.9-0.3-1.6-0.9-2.2c-0.6-0.6-1.4-0.9-2.2-0.9S10.1,33.3,9.6,33.9z"/>
</svg>
