<?xml version="1.0" encoding="UTF-8"?>
<svg id="Layer_1" data-name="Layer 1" xmlns="http://www.w3.org/2000/svg" viewBox="0 0 71.69 71.69">
  <defs>
    <style>
      .cls-1 {
        fill: #454546;
      }
    </style>
  </defs>
  <path class="cls-1" d="m36.98,46.58c3.26,0,6.03-1.14,8.31-3.42,2.28-2.28,3.42-5.06,3.42-8.32s-1.14-6.03-3.42-8.31c-2.28-2.28-5.06-3.42-8.32-3.42s-6.03,1.14-8.31,3.42c-2.28,2.28-3.42,5.06-3.42,8.32s1.14,6.03,3.42,8.31c2.28,2.28,5.06,3.42,8.32,3.42Zm-.02-4c-2.15,0-3.98-.75-5.47-2.26-1.5-1.51-2.24-3.34-2.24-5.49s.75-3.98,2.26-5.47c1.51-1.5,3.34-2.24,5.49-2.24s3.98.75,5.47,2.26c1.5,1.51,2.24,3.34,2.24,5.49s-.75,3.98-2.26,5.47c-1.51,1.5-3.34,2.24-5.49,2.24Zm.02,12.98c-6.72,0-12.79-1.91-18.22-5.73-5.43-3.82-9.48-8.81-12.15-14.98,2.67-6.17,6.72-11.16,12.15-14.98,5.43-3.82,11.5-5.73,18.22-5.73s12.79,1.91,18.22,5.73,9.48,8.81,12.15,14.98c-2.67,6.17-6.72,11.16-12.15,14.98s-11.5,5.73-18.22,5.73Zm-.01-4.14c5.58,0,10.7-1.51,15.37-4.52,4.67-3.01,8.23-7.03,10.66-12.04-2.44-5.02-5.99-9.03-10.65-12.04-4.66-3.01-9.78-4.52-15.36-4.52s-10.7,1.51-15.37,4.52c-4.67,3.01-8.25,7.03-10.73,12.04,2.48,5.02,6.06,9.03,10.72,12.04,4.66,3.01,9.78,4.52,15.36,4.52Z"/>
</svg>