<?xml version="1.0" encoding="UTF-8"?>
<svg xmlns="http://www.w3.org/2000/svg" viewBox="0 0 1600.05 734.04">
  <defs>
    <style>
      .cls-1, .cls-2, .cls-3 {
        stroke-width: 3px;
      }

      .cls-1, .cls-2, .cls-3, .cls-4, .cls-5 {
        fill: none;
        stroke-miterlimit: 10;
      }

      .cls-1, .cls-2, .cls-5 {
        stroke: #454546;
      }

      .cls-1, .cls-6, .cls-7, .cls-8 {
        opacity: .42;
      }

      .cls-3, .cls-4 {
        stroke: #444545;
      }

      .cls-9 {
        fill: #444545;
      }

      .cls-10, .cls-8 {
        fill: #454546;
      }

      .cls-7 {
        fill: #f4f4f5;
      }
    </style>
  </defs>
  <g id="Layer_2" data-name="Layer 2">
    <rect class="cls-7" width="1600.05" height="734.04"/>
  </g>
  <g id="Layer_1" data-name="Layer 1">
    <g class="cls-6">
      <path class="cls-5" d="m1377.29,246.4c-.36,2.71-.95,5.31-1.76,7.84.33-2.71.92-5.31,1.76-7.84Z"/>
      <path class="cls-5" d="m1292.96,258.56c-.31-.66-.59-1.35-.84-2.04.46.54.92,1.12,1.33,1.69"/>
      <path class="cls-5" d="m1292.96,258.56c-.31-.66-.59-1.35-.84-2.04.46.54.92,1.12,1.33,1.69"/>
      <path class="cls-5" d="m1377.29,246.4c-.36,2.71-.95,5.31-1.76,7.84.33-2.71.92-5.31,1.76-7.84Z"/>
      <path class="cls-5" d="m1377.29,246.4c-.36,2.71-.95,5.31-1.76,7.84.33-2.71.92-5.31,1.76-7.84Z"/>
      <path class="cls-5" d="m1377.34,246.27c-.05.05-.05.08-.05.13,0-.05.03-.1,0-.15t.05.03Z"/>
      <path class="cls-2" d="m1292.96,258.56c-.31-.66-.59-1.35-.84-2.04"/>
      <path class="cls-2" d="m1432.39,346.41c1.2-5.77,1.81-11.73,1.81-17.86,0-8.92-1.33-17.52-3.81-25.62,19.11-4.88,33.24-22.2,33.24-42.84,0-11.93-4.7-22.71-12.36-30.66-7.87-8.23-18.88-13.39-31.09-13.59-.26-.03-.54-.03-.82-.03-19.62,0-36.25,12.77-42.02,30.45-.05.05-.05.08-.05.13-.36,2.71-.95,5.31-1.76,7.84.33-2.71.92-5.31,1.76-7.84,0-.05.03-.1,0-.15.26-1.84.38-3.73.38-5.65,0-21.15-14.87-38.86-34.72-43.22-3.07-.69-6.28-1.05-9.55-1.05-8.94,0-17.29,2.66-24.24,7.23v.03c-12.06,7.89-20,21.54-20,37.02,0,5.62,1.05,10.98,2.96,15.92-8.12-9.73-20.33-15.92-34-15.92-7.64,0-14.84,1.94-21.1,5.34-10.29,5.59-18.11,15.17-21.41,26.64-1.12,3.88-1.74,8.02-1.74,12.26,0,22.61,16.96,41.26,38.83,43.91-14.71,2.66-26.9,12.65-32.67,26.03-2.32,5.36-3.6,11.29-3.6,17.5s1.18,11.62,3.3,16.78c6.62,16.12,22.45,27.46,40.95,27.46,13.9,0,26.29-6.39,34.38-16.4,2.12,1.53,8.51,4.75,14.82,7.87.05.03.08.05.13.05,5.9,2.91,11.78,5.7,14.15,6.82,0,0,0,.03.03.03.05,0,.08.03.13.05l33.47,66.32,54.82,108.72,100.14,198.52,138.71-80.06-219.06-362.04Zm-193.13-62.97c0-9.45,7.66-17.12,17.12-17.12s17.12,7.66,17.12,17.12-7.66,17.14-17.12,17.14-17.12-7.66-17.12-17.14Zm22.99,103.82c-9.48,0-17.14-7.66-17.14-17.12s7.66-17.12,17.14-17.12,17.12,7.66,17.12,17.12-7.66,17.12-17.12,17.12Zm159.82-147.86c9.45,0,17.12,7.66,17.12,17.12s-7.66,17.12-17.12,17.12-17.14-7.66-17.14-17.12,7.66-17.12,17.14-17.12Zm-87.85-19.41c9.45,0,17.12,7.69,17.12,17.14s-7.66,17.12-17.12,17.12-17.14-7.66-17.14-17.12,7.66-17.14,17.14-17.14Zm21.66,146.53c-16.3,10.37-38.11,1.61-42.43-17.24-5.8-25.14-6.03-53.47,8.4-62.64,14.43-9.2,40,2.96,60.34,18.83,15.25,11.88,14,35.36-2.3,45.73l-24.01,15.33Z"/>
      <path class="cls-10" d="m1279.37,370.15c0,9.45-7.66,17.12-17.12,17.12s-17.14-7.66-17.14-17.12,7.66-17.12,17.14-17.12,17.12,7.66,17.12,17.12Z"/>
      <path class="cls-10" d="m1273.5,283.44c0,9.48-7.66,17.14-17.12,17.14s-17.12-7.66-17.12-17.14,7.66-17.12,17.12-17.12,17.12,7.66,17.12,17.12Z"/>
      <path class="cls-10" d="m1351.34,237.13c0,9.45-7.66,17.12-17.12,17.12s-17.14-7.66-17.14-17.12,7.66-17.14,17.14-17.14,17.12,7.69,17.12,17.14Z"/>
      <path class="cls-10" d="m1439.19,256.52c0,9.45-7.66,17.12-17.12,17.12s-17.14-7.66-17.14-17.12,7.66-17.12,17.14-17.12,17.12,7.66,17.12,17.12Z"/>
      <path class="cls-9" d="m1379.9,351.19l-24.01,15.33c-16.3,10.37-38.11,1.61-42.43-17.24-5.8-25.14-6.03-53.47,8.4-62.64,14.43-9.2,40,2.96,60.34,18.83,15.25,11.88,14,35.36-2.3,45.73Z"/>
      <path class="cls-3" d="m1216.43,372.29c0,5.95,1.18,11.62,3.3,16.78-1.28.08-2.63-.08-3.99-.49-10.01-3.07-20-8.74-20.31-15.66-.31-6.95,9.15-13.46,18.85-17.4,1.92-.79,3.88-1,5.75-.74-2.32,5.36-3.6,11.29-3.6,17.5Z"/>
      <path class="cls-3" d="m1237.02,245.94c-10.29,5.59-18.11,15.17-21.41,26.64-1.89-1.15-3.47-2.86-4.47-5.08-4.24-9.58-6.51-20.85-1.46-25.62,5.03-4.78,16.17-1.89,25.49,2.86.66.33,1.28.74,1.84,1.2Z"/>
      <path class="cls-3" d="m1342.96,197.38c-3.07-.69-6.28-1.05-9.55-1.05-8.94,0-17.29,2.66-24.24,7.23-.23-1.12-.28-2.32-.15-3.55,1.12-10.42,4.8-21.31,11.55-22.91s14.94,6.46,20.64,15.25c1.05,1.58,1.61,3.3,1.76,5.03Z"/>
      <path class="cls-3" d="m1451.35,229.01c-.03.15-.05.28-.08.43-7.87-8.23-18.88-13.39-31.09-13.59.51-.84,1.15-1.66,1.94-2.38,7.74-7.08,17.7-12.8,23.83-9.55,6.13,3.27,6.95,14.71,5.39,25.09Z"/>
      <path class="cls-10" d="m1383.52,411.71c-22.61,12.17-51.4,11.46-73.23-2.08-.69-.45-1.45-.79-2.05-1.36,0,0,1.19-1.84,1.19-1.84,1.27.5,2.94,1.68,4.16,2.35,20.89,11.67,47.55,11.79,68.52.28,0,0,1.41,2.65,1.41,2.65h0Z"/>
      <path class="cls-10" d="m1361.44,489.41c8.3-3.58,17.26-5.7,26.64-6.14,46.42-2.2,86,37.35,88.41,88.35,1.48,31.36-11.44,59.76-32.44,77.43l-82.62-159.63Z"/>
      <path class="cls-10" d="m1606.13,630.94c-5.49,2.34-11.43,3.8-17.69,4.26-30.92,2.24-57.8-21.09-60.04-52.1-1.38-19.07,6.89-36.62,20.66-47.79l57.07,95.64Z"/>
      <path class="cls-10" d="m1483.95,429.51c-3.37,1.44-7.03,2.33-10.87,2.61-19,1.37-35.51-12.91-36.89-31.91-.84-11.69,4.24-22.43,12.7-29.28l35.05,58.58Z"/>
      <path class="cls-5" d="m1288.31,492.77c-1.33,1.7-2.78,3.25-4.35,4.64,1.31-1.71,2.76-3.26,4.35-4.64Z"/>
      <path class="cls-5" d="m1225.88,467.21c.06-.58.14-1.16.25-1.73.1.55.18,1.14.23,1.68"/>
      <path class="cls-5" d="m1225.88,467.21c.06-.58.14-1.16.25-1.73.1.55.18,1.14.23,1.68"/>
      <path class="cls-5" d="m1288.31,492.77c-1.33,1.7-2.78,3.25-4.35,4.64,1.31-1.71,2.76-3.26,4.35-4.64Z"/>
      <path class="cls-5" d="m1288.31,492.77c-1.33,1.7-2.78,3.25-4.35,4.64,1.31-1.71,2.76-3.26,4.35-4.64Z"/>
      <path class="cls-5" d="m1288.39,492.7c-.06.01-.07.03-.09.07.02-.03.06-.06.06-.1t.02.04Z"/>
      <path class="cls-2" d="m1225.88,467.21c.06-.58.14-1.16.25-1.73"/>
      <path class="cls-10" d="m1285.75,583.15c3.14-3.46,5.95-7.27,8.41-11.46,3.58-6.08,6.13-12.49,7.69-19.01,15,4.34,31.6-1.8,39.88-15.89,4.79-8.14,5.91-17.39,3.87-25.89-2.07-8.77-7.51-16.72-15.76-21.76-.16-.12-.36-.23-.55-.35-13.39-7.88-29.87-5.84-40.91,3.91-.06.01-.07.03-.09.07-1.33,1.7-2.78,3.25-4.35,4.64,1.31-1.71,2.76-3.26,4.35-4.64.02-.03.06-.06.06-.1.91-1.15,1.76-2.39,2.53-3.7,8.49-14.43,5.46-32.49-6.33-43.44-1.82-1.7-3.87-3.24-6.1-4.55-6.1-3.59-12.87-5.13-19.45-4.8v.02c-11.41.55-22.31,6.66-28.52,17.23-2.26,3.84-3.7,7.92-4.37,12.05-1.64-9.9-7.49-19.03-16.81-24.52-5.21-3.07-10.91-4.64-16.54-4.83-9.27-.32-18.45,3.08-25.31,9.59-2.33,2.2-4.41,4.78-6.11,7.67-9.08,15.43-4.99,34.97,8.86,45.56-11.11-4.1-23.44-2.17-32.75,4.64-3.74,2.73-6.99,6.26-9.49,10.5-2.39,4.06-3.87,8.4-4.49,12.78-1.96,13.66,4.3,27.76,16.92,35.19,9.48,5.58,20.5,6.2,30.05,2.62.83,1.9,3.9,6.66,6.95,11.32.02.04.03.07.07.09,2.86,4.36,5.75,8.62,6.92,10.34,0,0-.01.02,0,.03.03.02.04.05.07.09l-3.79,58.7-6.25,96.21-11.38,175.69,126.81,1.07-4.11-335.03Zm-106.51-120.53c3.8-6.45,12.1-8.6,18.55-4.81,6.45,3.8,8.6,12.1,4.81,18.55-3.81,6.47-12.11,8.62-18.56,4.82-6.45-3.8-8.6-12.1-4.8-18.57Zm-26,80.08c-6.47-3.81-8.62-12.11-4.82-18.56,3.8-6.45,12.1-8.6,18.57-4.8,6.45,3.8,8.6,12.1,4.81,18.55-3.8,6.45-12.1,8.6-18.55,4.81Zm168.44-36.73c6.45,3.8,8.6,12.1,4.81,18.55s-12.1,8.6-18.55,4.81c-6.47-3.81-8.62-12.11-4.82-18.56,3.8-6.45,12.1-8.6,18.57-4.8Zm-52.16-48.53c6.45,3.8,8.59,12.12,4.8,18.57-3.8,6.45-12.1,8.6-18.55,4.81-6.47-3.81-8.62-12.11-4.82-18.56,3.8-6.45,12.11-8.62,18.58-4.81Zm-44.06,108.7c-15.29.53-26.66-14.21-22.03-28.81,6.14-19.48,17.36-38.91,30.89-39.37,13.54-.48,26.11,18.09,33.62,37.08,5.64,14.23-4.64,29.75-19.93,30.28l-22.54.82Z"/>
      <path class="cls-5" d="m1171.79,537.9c-3.8,6.45-12.1,8.6-18.55,4.81-6.47-3.81-8.62-12.11-4.82-18.56,3.8-6.45,12.1-8.6,18.57-4.8,6.45,3.8,8.6,12.1,4.81,18.55Z"/>
      <path class="cls-5" d="m1202.6,476.37c-3.81,6.47-12.11,8.62-18.56,4.82-6.45-3.8-8.6-12.1-4.8-18.57,3.8-6.45,12.1-8.6,18.55-4.81,6.45,3.8,8.6,12.1,4.81,18.55Z"/>
      <path class="cls-5" d="m1274.32,476.02c-3.8,6.45-12.1,8.6-18.55,4.81-6.47-3.81-8.62-12.11-4.82-18.56,3.8-6.45,12.11-8.62,18.58-4.81,6.45,3.8,8.59,12.12,4.8,18.57Z"/>
      <path class="cls-5" d="m1326.49,524.53c-3.8,6.45-12.1,8.6-18.55,4.81-6.47-3.81-8.62-12.11-4.82-18.56,3.8-6.45,12.1-8.6,18.57-4.8,6.45,3.8,8.6,12.1,4.81,18.55Z"/>
      <path class="cls-4" d="m1248.01,565.33l-22.54.82c-15.29.53-26.66-14.21-22.03-28.81,6.14-19.48,17.36-38.91,30.89-39.37,13.54-.48,26.11,18.09,33.62,37.08,5.64,14.23-4.64,29.75-19.93,30.28Z"/>
      <path class="cls-9" d="m1127.98,514.09c-2.39,4.06-3.87,8.4-4.49,12.78-.9-.46-1.76-1.11-2.52-1.93-5.6-6.11-10.14-13.99-7.57-18.84,2.58-4.87,11.65-5.52,19.85-4.3,1.63.23,3.05.88,4.22,1.8-3.74,2.73-6.99,6.26-9.49,10.5Z"/>
      <path class="cls-9" d="m1192.77,436.13c-9.27-.32-18.45,3.08-25.31,9.59-.83-1.54-1.22-3.35-1.01-5.26.95-8.24,3.93-16.84,9.3-18.07,5.35-1.24,11.79,5.2,16.25,12.19.32.49.57,1.02.77,1.56Z"/>
      <path class="cls-9" d="m1284.56,445.53c-1.82-1.7-3.87-3.24-6.1-4.55-6.1-3.59-12.87-5.13-19.45-4.8.29-.86.74-1.7,1.32-2.48,4.95-6.66,11.83-12.61,17.08-11s7.6,10.41,7.96,18.7c.08,1.5-.22,2.9-.82,4.14Z"/>
      <path class="cls-9" d="m1345.83,510.64c-.08.09-.15.17-.23.27-2.07-8.77-7.51-16.72-15.76-21.76.69-.37,1.45-.67,2.28-.84,8.12-1.72,17.22-1.63,20.1,3.05,2.87,4.69-1.17,12.83-6.4,19.28Z"/>
    </g>
  </g>
  <g id="Layer_3" data-name="Layer 3">
    <path class="cls-8" d="m759.15,715.92c9.43-10.07-9.93-86.3-14.57-100.97-11.14-35.36-31.51-70.62-56.07-71.46-24.58-.87-47.39,32.82-61.01,67.29-1.52,3.83-2.4,7.72-2.71,11.55-10.28-1.03-21.2-1.57-32.79-1.57s-22.59.66-32.97,1.92c-.41-3.21-1.23-6.44-2.5-9.63-13.62-34.47-36.43-68.17-61.01-67.3-24.57.84-44.93,36.1-56.07,71.46-4.46,14.06-22.44,84.65-15.61,99.37-8.15,19.87-12.01,41.32-12.01,62.81,0,79.64,53,129.76,180.17,129.76s174.06-64.56,174.06-144.2c0-17.22-2.19-33.73-6.91-49.03Zm-243.33-60.41l-32.45,1.18c-22,.77-38.37-20.45-31.71-41.46,8.83-28.04,27.32-45.47,46.8-46.14,19.49-.69,35.24,15.5,46.05,42.83,8.11,20.48-6.68,42.82-28.69,43.59Zm184.83-1.08l-32.45-1.18c-22-.77-36.8-23.1-28.69-43.59,10.8-27.34,26.56-43.53,46.05-42.83,19.48.67,37.97,18.09,46.8,46.14,6.66,21.01-9.71,42.23-31.71,41.46Z"/>
  </g>
  <g id="Layer_4" data-name="Layer 4">
    <path class="cls-1" d="m350.7,730.12c-43.37,100.23-125.88,160.99-254.32,105.41-128.44-55.58-154.67-141.82-111.3-242.05,15.61-36.07,38.1-69.04,66.5-93.87,5.71,7.21,13.27,12.63,22.35,15.78,25.06,8.76,55.51-1.77,86.28-26.07,12.79-10.08,16.72-23.66,12.87-35.44,16.28.35,33.3,2.94,51.03,8.08h0c9.58,2.78,19.34,6.29,29.32,10.61,3.68,1.59,7.27,3.22,10.75,4.89,29.02,13.86,51.54,30.26,68.38,48.55-14.04,3.69-23.68,16.94-22.08,35.48,3.35,39.06,16.52,68.47,40.06,80.75,7.05,3.68,14.52,5.55,22.07,5.65-2.24,26.86-9.97,54.6-21.93,82.22Z"/>
    <path class="cls-8" d="m160.21,489.33c-30.77,24.3-61.22,34.83-86.28,26.07-9.08-3.16-16.64-8.57-22.35-15.78-10.04-12.68-14.28-30.89-10.76-52.02,4.08-24.84,38.4-40.41,66.7-30.53l41.71,14.61c12.62,4.4,20.76,12.73,23.85,22.22,3.85,11.79-.09,25.36-12.87,35.44Z"/>
    <path class="cls-8" d="m422.65,619.96c-14.26,18.7-32.37,28.17-50.02,27.93-7.55-.1-15.02-1.97-22.07-5.65-23.54-12.28-36.7-41.68-40.06-80.75-1.61-18.54,8.04-31.79,22.08-35.48,8.13-2.14,17.73-1.08,27.47,4.01l39.2,20.41c26.57,13.87,38.71,49.54,23.4,69.53Z"/>
  </g>
</svg>