<?xml version="1.0" encoding="UTF-8"?>
<svg id="Layer_1" data-name="Layer 1" xmlns="http://www.w3.org/2000/svg" viewBox="0 0 48 48">
  <defs>
    <style>
      .cls-1 {
        fill: #454646;
      }
    </style>
  </defs>
  <path class="cls-1" d="m9.7,44v-20.8h3v17.8h16v-11.15l5.1-5.1c1-1,1.77-2.14,2.3-3.43.53-1.28.8-2.63.8-4.03s-.28-2.74-.83-4.03-1.31-2.41-2.28-3.38l-1.6-1.65-6.55,6.55h-9l-2.65,2.65-2.15-2.1,3.55-3.55h9l7.8-7.8,3.75,3.75c1.27,1.27,2.23,2.73,2.9,4.38s1.02,3.38,1.05,5.18c-.03,1.8-.38,3.53-1.05,5.18s-1.63,3.11-2.9,4.38l-4.25,4.25v12.9H9.7Zm9.35-10.75l-10.05-10.05c-.33-.33-.58-.71-.75-1.13s-.25-.86-.25-1.33.08-.92.25-1.35.42-.82.75-1.15l3.85-3.9,5.85,5.8c.9.9,1.59,1.93,2.08,3.08s.73,2.36.73,3.63c0,1.17-.21,2.31-.63,3.43s-1.03,2.11-1.83,2.98Z"/>
</svg>